<?xml version="1.0" encoding="UTF-8"?>
<svg width="1200pt" height="1200pt" version="1.1" viewBox="0 0 1200 1200" xmlns="http://www.w3.org/2000/svg">
 <g>
  <path d="m300 318.75h-56.25v-168.75c0-10.352-8.3984-18.75-18.75-18.75s-18.75 8.3984-18.75 18.75v168.75h-56.25c-10.352 0-18.75 8.3984-18.75 18.75v150c0 10.352 8.3984 18.75 18.75 18.75h56.25v543.75c0 10.367 8.3984 18.75 18.75 18.75s18.75-8.3828 18.75-18.75v-543.75h56.25c10.352 0 18.75-8.3984 18.75-18.75v-150c0-10.352-8.3984-18.75-18.75-18.75zm-18.75 150h-112.5v-112.5h112.5z"/>
  <path d="m675 693.75h-56.25v-543.75c0-10.352-8.3984-18.75-18.75-18.75s-18.75 8.3984-18.75 18.75v543.75h-56.25c-10.352 0-18.75 8.3828-18.75 18.75v150c0 10.367 8.3984 18.75 18.75 18.75h56.25v168.75c0 10.367 8.3984 18.75 18.75 18.75s18.75-8.3828 18.75-18.75v-168.75h56.25c10.367 0 18.75-8.3828 18.75-18.75v-150c0-10.367-8.3828-18.75-18.75-18.75zm-18.75 150h-112.5v-112.5h112.5z"/>
  <path d="m1050 318.75h-56.25v-168.75c0-10.352-8.3828-18.75-18.75-18.75s-18.75 8.3984-18.75 18.75v168.75h-56.25c-10.367 0-18.75 8.3984-18.75 18.75v150c0 10.352 8.3828 18.75 18.75 18.75h56.25v543.75c0 10.367 8.3828 18.75 18.75 18.75s18.75-8.3828 18.75-18.75v-543.75h56.25c10.367 0 18.75-8.3984 18.75-18.75v-150c0-10.352-8.3828-18.75-18.75-18.75zm-18.75 150h-112.5v-112.5h112.5z"/>
 </g>
</svg>
