<?xml version="1.0" encoding="UTF-8"?>
<svg width="1200pt" height="1200pt" version="1.1" viewBox="0 0 1200 1200" xmlns="http://www.w3.org/2000/svg">
 <g>
  <path d="m1012.5 918.75c-63.395 0-131.25-120.56-131.25-300v-56.25c0-131.77-91.219-242.38-213.75-272.72 16.164-16.855 26.25-39.617 26.25-64.781 0-51.695-42.055-93.75-93.75-93.75s-93.75 42.055-93.75 93.75c0 25.164 10.086 47.926 26.27 64.781-122.53 30.336-213.77 140.95-213.77 272.72v56.25c0 179.44-67.875 300-131.25 300-10.352 0-18.75 8.3828-18.75 18.75s8.3984 18.75 18.75 18.75h825c10.367 0 18.75-8.3828 18.75-18.75s-8.3828-18.75-18.75-18.75zm-468.75-693.75c0-31.012 25.238-56.25 56.25-56.25s56.25 25.238 56.25 56.25-25.238 56.25-56.25 56.25-56.25-25.238-56.25-56.25zm-277.71 693.75c54.039-55.648 90.207-167.81 90.207-300v-56.25c0-134.4 109.35-243.75 243.75-243.75s243.75 109.35 243.75 243.75v56.25c0 132.19 36.168 244.35 90.227 300z"/>
  <path d="m581.25 975v75c0 10.367 8.3984 18.75 18.75 18.75s18.75-8.3828 18.75-18.75v-75c0-10.367-8.3984-18.75-18.75-18.75s-18.75 8.3828-18.75 18.75z"/>
 </g>
</svg>
