<?xml version="1.0" encoding="UTF-8"?>
<svg width="1200pt" height="1200pt" version="1.1" viewBox="0 0 1200 1200" xmlns="http://www.w3.org/2000/svg">
 <g>
  <path d="m1050 1031.2h-881.25v-881.25c0-10.352-8.3984-18.75-18.75-18.75s-18.75 8.3984-18.75 18.75v900c0 10.367 8.3984 18.75 18.75 18.75h900c10.367 0 18.75-8.3828 18.75-18.75s-8.3828-18.75-18.75-18.75z"/>
  <path d="m300 918.75h150c10.352 0 18.75-8.3828 18.75-18.75v-337.5c0-10.352-8.3984-18.75-18.75-18.75h-150c-10.352 0-18.75 8.3984-18.75 18.75v337.5c0 10.367 8.3984 18.75 18.75 18.75zm18.75-337.5h112.5v300h-112.5z"/>
  <path d="m600 918.75h150c10.367 0 18.75-8.3828 18.75-18.75v-487.5c0-10.352-8.3828-18.75-18.75-18.75h-150c-10.352 0-18.75 8.3984-18.75 18.75v487.5c0 10.367 8.3984 18.75 18.75 18.75zm18.75-487.5h112.5v450h-112.5z"/>
  <path d="m1050 243.75h-150c-10.367 0-18.75 8.3984-18.75 18.75v637.5c0 10.367 8.3828 18.75 18.75 18.75h150c10.367 0 18.75-8.3828 18.75-18.75v-637.5c0-10.352-8.3828-18.75-18.75-18.75zm-18.75 637.5h-112.5v-600h112.5z"/>
 </g>
</svg>
