<?xml version="1.0" encoding="UTF-8"?>
<svg width="1200pt" height="1200pt" version="1.1" viewBox="0 0 1200 1200" xmlns="http://www.w3.org/2000/svg">
 <g>
  <path d="m600 131.25c-258.47 0-468.75 210.28-468.75 468.75s210.28 468.75 468.75 468.75 468.75-210.28 468.75-468.75-210.28-468.75-468.75-468.75zm0 900c-237.79 0-431.25-193.45-431.25-431.25 0-237.79 193.46-431.25 431.25-431.25 237.8 0 431.25 193.46 431.25 431.25 0 237.8-193.45 431.25-431.25 431.25z"/>
  <path d="m735.58 475.5-176.7 212.06-98.477-65.664c-8.625-5.7383-20.25-3.4141-26.008 5.1953-5.7383 8.625-3.4141 20.25 5.1953 26.008l112.5 75c3.1875 2.1172 6.8047 3.1484 10.406 3.1484 5.3984 0 10.727-2.3242 14.418-6.7305l187.5-225c6.6367-7.9492 5.5508-19.781-2.3984-26.398-7.9883-6.6602-19.781-5.5703-26.438 2.3789z"/>
 </g>
</svg>
