<?xml version="1.0" encoding="UTF-8"?>
<svg width="1200pt" height="1200pt" version="1.1" viewBox="0 0 1200 1200" xmlns="http://www.w3.org/2000/svg">
 <g>
  <path d="m950.76 361.74-225-225c-3.5078-3.5234-8.2695-5.4922-13.258-5.4922h-450c-10.352 0-18.75 8.3984-18.75 18.75v900c0 10.367 8.3984 18.75 18.75 18.75h675c10.367 0 18.75-8.3828 18.75-18.75v-675c0-4.9688-1.9688-9.75-5.4922-13.258zm-219.51-166.48 160.99 160.99h-160.99zm-450 835.99v-862.5h412.5v206.25c0 10.352 8.3828 18.75 18.75 18.75h206.25v637.5z"/>
  <path d="m412.5 393.75h150c10.352 0 18.75-8.3984 18.75-18.75s-8.3984-18.75-18.75-18.75h-150c-10.352 0-18.75 8.3984-18.75 18.75s8.3984 18.75 18.75 18.75z"/>
  <path d="m787.5 506.25h-375c-10.352 0-18.75 8.3984-18.75 18.75s8.3984 18.75 18.75 18.75h375c10.367 0 18.75-8.3984 18.75-18.75s-8.3828-18.75-18.75-18.75z"/>
  <path d="m787.5 656.25h-375c-10.352 0-18.75 8.3828-18.75 18.75s8.3984 18.75 18.75 18.75h375c10.367 0 18.75-8.3828 18.75-18.75s-8.3828-18.75-18.75-18.75z"/>
  <path d="m787.5 806.25h-375c-10.352 0-18.75 8.3828-18.75 18.75s8.3984 18.75 18.75 18.75h375c10.367 0 18.75-8.3828 18.75-18.75s-8.3828-18.75-18.75-18.75z"/>
 </g>
</svg>
