<?xml version="1.0" encoding="UTF-8"?>
<svg width="1200pt" height="1200pt" version="1.1" viewBox="0 0 1200 1200" xmlns="http://www.w3.org/2000/svg">
 <g>
  <path d="m1050 131.25h-900c-10.352 0-18.75 8.3984-18.75 18.75v900c0 10.367 8.3984 18.75 18.75 18.75h900c10.367 0 18.75-8.3828 18.75-18.75v-900c0-10.352-8.3828-18.75-18.75-18.75zm-18.75 900h-862.5v-862.5h862.5z"/>
  <path d="m585 798.75c3.5234 4.7266 9.0938 7.5 15 7.5s11.457-2.7734 15-7.5l225-300c4.2734-5.6797 4.9492-13.273 1.7812-19.633-3.1875-6.3555-9.6758-10.367-16.781-10.367h-450c-7.1055 0-13.594 4.0117-16.781 10.367-3.1875 6.3594-2.4766 13.953 1.7812 19.633zm202.5-292.5-187.5 249.99-187.5-249.99z"/>
 </g>
</svg>
