<?xml version="1.0" encoding="UTF-8"?>
<svg width="1200pt" height="1200pt" version="1.1" viewBox="0 0 1200 1200" xmlns="http://www.w3.org/2000/svg">
 <g>
  <path d="m1050 806.25h-150c-3.6953 0-7.332 1.1055-10.406 3.1484l-107.77 71.852h-363.64l-107.77-71.852c-3.0742-2.043-6.7109-3.1484-10.406-3.1484h-150c-10.352 0-18.75 8.3828-18.75 18.75v225c0 10.367 8.3984 18.75 18.75 18.75h900c10.367 0 18.75-8.3828 18.75-18.75v-225c0-10.367-8.3828-18.75-18.75-18.75zm-18.75 225h-862.5v-187.5h125.57l107.77 71.852c3.0742 2.043 6.7109 3.1484 10.406 3.1484h375c3.6953 0 7.332-1.1055 10.406-3.1484l107.77-71.852h125.57z"/>
  <path d="m586.74 763.26c3.6562 3.6562 8.457 5.4922 13.258 5.4922s9.6016-1.8359 13.258-5.4922l225-225c5.3633-5.3633 6.9766-13.426 4.0703-20.438-2.8906-6.9961-9.7539-11.57-17.328-11.57h-93.75v-356.25c0-10.352-8.3828-18.75-18.75-18.75h-225c-10.352 0-18.75 8.3984-18.75 18.75v356.25h-93.75c-7.5742 0-14.418 4.5742-17.324 11.57-2.9062 7.0117-1.293 15.074 4.0703 20.438zm-99.242-219.51c10.352 0 18.75-8.3984 18.75-18.75v-356.25h187.5v356.25c0 10.352 8.3828 18.75 18.75 18.75h67.238l-179.74 179.74-179.74-179.74z"/>
 </g>
</svg>
