<?xml version="1.0" encoding="UTF-8"?>
<svg width="1200pt" height="1200pt" version="1.1" viewBox="0 0 1200 1200" xmlns="http://www.w3.org/2000/svg">
 <g>
  <path d="m1050 131.25h-900c-10.352 0-18.75 8.3984-18.75 18.75v900c0 10.367 8.3984 18.75 18.75 18.75h900c10.367 0 18.75-8.3828 18.75-18.75v-900c0-10.352-8.3828-18.75-18.75-18.75zm-18.75 900h-862.5v-862.5h862.5z"/>
  <path d="m334.84 883.91h106.07c4.9688 0 9.75-1.9688 13.258-5.4922l384.09-384.09c3.5234-3.5273 5.4922-8.2891 5.4922-13.258s-1.9688-9.75-5.4922-13.258l-106.07-106.07c-7.332-7.332-19.18-7.332-26.512 0l-384.09 384.09c-3.5234 3.5234-5.4922 8.2695-5.4922 13.258v106.05c0 4.9883 1.9688 9.75 5.4922 13.258 3.5234 3.5039 8.2852 5.5117 13.254 5.5117zm384.09-482.4 79.555 79.555-79.555 79.559-79.555-79.555zm-365.34 365.34 259.27-259.27 79.555 79.555-259.27 259.28h-79.555z"/>
 </g>
</svg>
