<?xml version="1.0" encoding="UTF-8"?>
<svg width="1200pt" height="1200pt" version="1.1" viewBox="0 0 1200 1200" xmlns="http://www.w3.org/2000/svg">
 <path d="m1062.2 529.52-262.5-225c-5.5508-4.7617-13.352-5.832-20.023-2.793-6.6406 3.0547-10.914 9.6914-10.914 17.023v93.75h-393.75c-134.4 0-243.75 109.35-243.75 243.75s109.35 243.75 243.75 243.75h150c10.352 0 18.75-8.3828 18.75-18.75s-8.3984-18.75-18.75-18.75c-31.238 0-53.211-6.8438-67.199-20.961-27.695-27.898-27.242-87-26.699-155.4 0.019532-3.6758 0.054688-7.4062 0.074219-11.137l337.57-0.003906v93.75c0 7.332 4.2734 13.969 10.914 17.023 6.6562 3.0547 14.457 1.9688 20.023-2.793l262.5-225c4.1641-3.5625 6.5625-8.7539 6.5625-14.23s-2.3984-10.668-6.5625-14.23zm-255.94 198.47v-71.738c0-10.367-8.3828-18.75-18.75-18.75h-375c-10.352 0-18.75 8.3828-18.75 18.75 0 10.031-0.074219 19.914-0.14844 29.586-0.5625 73.312-1.0703 137.1 32.57 176.66h-51.172c-113.72 0-206.25-92.531-206.25-206.25s92.531-206.25 206.25-206.25h412.5c10.367 0 18.75-8.3984 18.75-18.75v-71.738l214.95 184.24z"/>
</svg>
