<?xml version="1.0" encoding="UTF-8"?>
<svg width="1200pt" height="1200pt" version="1.1" viewBox="0 0 1200 1200" xmlns="http://www.w3.org/2000/svg">
 <path d="m600 131.25c-258.47 0-468.75 210.28-468.75 468.75 0 90.73 25.988 175.46 70.801 247.31 0.22656 0.41406 0.26172 0.89844 0.52344 1.293 0.33594 0.50781 0.78906 0.88281 1.1641 1.3516 83.176 131.34 229.65 218.79 396.26 218.79 258.47 0 468.75-210.28 468.75-468.75s-210.28-468.75-468.75-468.75zm375.26 680.87c-47.117-27.375-108.96-48.75-179.38-62.605 6.6953-46.781 10.371-96.973 10.371-149.51 0-50.195-3.3359-98.27-9.4688-143.27 71.477-14.23 133.89-36.242 181.01-64.426 34.031 61.652 53.457 132.43 53.457 207.7 0 77.082-20.418 149.44-55.988 212.12zm-375.26 219.13c-60.562 0-124.24-95.832-153-250.91 48.43-7.4805 100.18-11.586 153-11.586 53.324 0 104.95 3.9766 153.05 11.324-28.723 155.23-92.453 251.18-153.05 251.18zm0-300c-55.258 0-108.84 4.1797-158.98 11.887-6.1875-43.949-9.7695-91.781-9.7695-143.14 0-48.75 3.1328-94.445 8.7383-136.54 50.176 7.7266 103.78 11.906 158.98 11.906 55.988 0 110.3-4.293 161.01-12.188 5.625 42.172 8.7734 87.957 8.7734 136.82 0 51.375-3.582 99.207-9.7695 143.16-50.176-7.7266-103.8-11.906-158.98-11.906zm0-562.5c61.387 0 126.02 98.398 154.18 257.18-49.051 7.7266-101.59 11.926-155.21 11.926-53.383 0-105.07-3.9766-153.23-11.344 28.109-159.11 92.797-257.76 154.26-257.76zm358.27 191.53c-42.73 25.445-100.86 45.695-167.4 59.102-18.938-105.8-54.188-191.1-99.055-240.7 110.53 24.074 205.37 90.562 266.45 181.59zm-450.09-181.59c-44.98 49.688-80.289 135.28-99.188 241.43-66.488-13.145-124.35-33.242-167.87-58.93 61.07-91.465 156.15-158.35 267.05-182.5zm-286.52 214.55c47.363 27.977 109.97 49.801 181.5 63.863-6.1133 44.887-9.4141 92.852-9.4141 142.89 0 52.539 3.6758 102.73 10.387 149.51-70.426 13.855-132.3 35.176-179.4 62.586-35.57-62.68-55.988-135.04-55.988-212.1 0-74.867 19.199-145.33 52.914-206.76zm22.949 450.7c42.805-24.617 100.24-44.176 165.62-57.168 19.18 102.96 53.926 185.93 97.949 234.54-108.8-23.699-202.39-88.539-263.57-177.38zm447.21 177.38c44.062-48.676 78.824-131.74 98.008-234.84 65.27 12.898 122.3 32.457 165.56 57.449-61.184 88.855-154.77 153.7-263.57 177.39z"/>
</svg>
