<?xml version="1.0" encoding="UTF-8"?>
<svg width="1200pt" height="1200pt" version="1.1" viewBox="0 0 1200 1200" xmlns="http://www.w3.org/2000/svg">
 <path d="m983.62 266.02c-49.18-49.199-114.6-76.293-184.18-76.293-69.582 0-135 27.094-184.22 76.293l-15.207 15.227-15.227-15.227c-49.199-49.199-114.62-76.293-184.2-76.293s-135 27.094-184.22 76.293c-101.57 101.57-101.57 266.83 0 368.4l370.39 370.37c3.5234 3.5234 8.2891 5.4922 13.258 5.4922s9.75-1.9688 13.258-5.4922l370.35-370.36c101.55-101.57 101.55-266.83 0-368.4zm-26.512 341.87-357.09 357.13-357.13-357.11c-86.945-86.945-86.945-228.43 0-315.38 42.133-42.113 98.137-65.305 157.71-65.305s115.55 23.195 157.69 65.305l28.5 28.5c7.0508 7.0508 19.5 7.0312 26.531 0l28.461-28.5c42.113-42.113 98.117-65.305 157.69-65.305 59.57 0 115.55 23.195 157.67 65.305 86.926 86.941 86.926 228.43-0.015625 315.36z"/>
</svg>
