<?xml version="1.0" encoding="UTF-8"?>
<svg width="1200pt" height="1200pt" version="1.1" viewBox="0 0 1200 1200" xmlns="http://www.w3.org/2000/svg">
 <path d="m1062 548.1-218.27-181.88v-141.23c0-10.352-8.3828-18.75-18.75-18.75s-18.75 8.3984-18.75 18.75v109.97l-194.25-161.87c-6.957-5.8125-17.043-5.8125-24 0l-450 375c-7.9492 6.6367-9.0195 18.449-2.3984 26.398 6.6172 7.9492 18.43 9.0195 26.398 2.3984l81.75-68.117v503.72c0 10.367 8.3984 18.75 18.75 18.75h675c10.367 0 18.75-8.3828 18.75-18.75v-503.72l81.73 68.117c3.5273 2.9258 7.7617 4.3516 12 4.3516 5.3828 0 10.707-2.3047 14.438-6.75 6.6211-7.9492 5.5312-19.781-2.3984-26.398zm-368.27 445.65h-187.5v-225h187.5zm225-506.25v506.25h-187.5v-243.75c0-10.367-8.3828-18.75-18.75-18.75h-225c-10.352 0-18.75 8.3828-18.75 18.75v243.75h-187.5v-506.25c0-3-0.84375-5.7188-2.1016-8.2109l320.85-267.38 320.83 267.38c-1.2383 2.4922-2.082 5.2305-2.082 8.2109z"/>
</svg>
