<?xml version="1.0" encoding="UTF-8"?>
<svg width="1200pt" height="1200pt" version="1.1" viewBox="0 0 1200 1200" xmlns="http://www.w3.org/2000/svg">
 <g>
  <path d="m600 131.25c-258.47 0-468.75 210.28-468.75 468.75s210.28 468.75 468.75 468.75 468.75-210.28 468.75-468.75-210.28-468.75-468.75-468.75zm0 900c-237.79 0-431.25-193.45-431.25-431.25 0-237.79 193.46-431.25 431.25-431.25 237.8 0 431.25 193.46 431.25 431.25 0 237.8-193.45 431.25-431.25 431.25z"/>
  <path d="m600 506.25c51.695 0 93.75-42.055 93.75-93.75s-42.055-93.75-93.75-93.75-93.75 42.055-93.75 93.75 42.055 93.75 93.75 93.75zm0-150c31.012 0 56.25 25.238 56.25 56.25s-25.238 56.25-56.25 56.25-56.25-25.238-56.25-56.25 25.238-56.25 56.25-56.25z"/>
  <path d="m750 806.25h-56.25v-206.25c0-10.352-8.3828-18.75-18.75-18.75h-225c-10.352 0-18.75 8.3984-18.75 18.75s8.3984 18.75 18.75 18.75h56.25v187.5h-56.25c-10.352 0-18.75 8.3828-18.75 18.75s8.3984 18.75 18.75 18.75h300c10.367 0 18.75-8.3828 18.75-18.75s-8.3828-18.75-18.75-18.75zm-206.25-187.5h112.5v187.5h-112.5z"/>
 </g>
</svg>
