<?xml version="1.0" encoding="UTF-8"?>
<svg width="1200pt" height="1200pt" version="1.1" viewBox="0 0 1200 1200" xmlns="http://www.w3.org/2000/svg">
 <g>
  <path d="m1063.3 136.76c-3.5234-3.5234-8.2695-5.4922-13.258-5.4922h-900c-10.352 0-18.75 8.3984-18.75 18.75v900c0 10.367 8.3984 18.75 18.75 18.75h899.98c10.367 0 18.75-8.3828 18.75-18.75l0.019531-900c0.003906-4.9688-1.9844-9.75-5.4922-13.258zm-32.023 894.51h-862.48v-862.5h862.5z"/>
  <path d="m701.27 840.02c3.3008 2.4922 7.2578 3.75 11.25 3.75 2.8516 0 5.7383-0.65625 8.3828-1.9688 6.3555-3.1875 10.367-9.6758 10.367-16.781l0.019531-450c0-7.1055-4.0117-13.594-10.367-16.781-6.3555-3.1484-13.969-2.4766-19.633 1.7812l-300 225c-4.707 3.5234-7.5 9.0938-7.5 15s2.7734 11.457 7.5 15zm-7.4805-427.5-0.019531 375-249.99-187.5z"/>
 </g>
</svg>
