<?xml version="1.0" encoding="UTF-8"?>
<svg width="1200pt" height="1200pt" version="1.1" viewBox="0 0 1200 1200" xmlns="http://www.w3.org/2000/svg">
 <g>
  <path d="m900 506.25c-10.367 0-18.75 8.3984-18.75 18.75v506.25h-712.5v-712.5h506.25c10.367 0 18.75-8.3984 18.75-18.75s-8.3828-18.75-18.75-18.75h-525c-10.352 0-18.75 8.3984-18.75 18.75v750c0 10.367 8.3984 18.75 18.75 18.75h750c10.367 0 18.75-8.3828 18.75-18.75v-525c0-10.352-8.3828-18.75-18.75-18.75z"/>
  <path d="m1050 131.25h-225c-10.367 0-18.75 8.3984-18.75 18.75s8.3828 18.75 18.75 18.75h206.25v206.25c0 10.352 8.3828 18.75 18.75 18.75s18.75-8.3984 18.75-18.75v-225c0-10.352-8.3828-18.75-18.75-18.75z"/>
  <path d="m1012.5 168.75c-4.8008 0-9.6016 1.8359-13.258 5.4922l-412.5 412.5c-7.332 7.332-7.332 19.18 0 26.512 3.6562 3.6602 8.457 5.4961 13.258 5.4961s9.6016-1.8359 13.258-5.4922l412.5-412.5c3.6562-3.6562 5.4922-8.457 5.4922-13.258s-1.8359-9.6016-5.4922-13.258-8.457-5.4922-13.258-5.4922z"/>
 </g>
</svg>
