<?xml version="1.0" encoding="UTF-8"?>
<svg width="1200pt" height="1200pt" version="1.1" viewBox="0 0 1200 1200" xmlns="http://www.w3.org/2000/svg">
 <g>
  <path d="m937.5 506.25h-131.25v-168.75c0-113.72-92.531-206.25-206.25-206.25s-206.25 92.531-206.25 206.25v168.75h-131.25c-10.352 0-18.75 8.3984-18.75 18.75v525c0 10.367 8.3984 18.75 18.75 18.75h675c10.367 0 18.75-8.3828 18.75-18.75v-525c0-10.352-8.3828-18.75-18.75-18.75zm-506.25-168.75c0-93.039 75.711-168.75 168.75-168.75 93.055 0 168.75 75.711 168.75 168.75v168.75h-337.5zm487.5 693.75h-637.5v-487.5h637.5z"/>
  <path d="m600 656.25c-51.695 0-93.75 42.055-93.75 93.75 0 45.262 32.27 83.156 75 91.836v58.164c0 10.367 8.3984 18.75 18.75 18.75s18.75-8.3828 18.75-18.75v-58.164c42.73-8.6992 75-46.574 75-91.836 0-51.695-42.055-93.75-93.75-93.75zm0 150c-31.012 0-56.25-25.238-56.25-56.25s25.238-56.25 56.25-56.25 56.25 25.238 56.25 56.25-25.238 56.25-56.25 56.25z"/>
 </g>
</svg>
