<?xml version="1.0" encoding="UTF-8"?>
<svg width="1200pt" height="1200pt" version="1.1" viewBox="0 0 1200 1200" xmlns="http://www.w3.org/2000/svg">
 <g>
  <path d="m937.5 131.25h-675c-10.352 0-18.75 8.3984-18.75 18.75v900c0 10.367 8.3984 18.75 18.75 18.75h675c10.367 0 18.75-8.3828 18.75-18.75v-900c0-10.352-8.3828-18.75-18.75-18.75zm-18.75 900h-637.5v-862.5h637.5z"/>
  <path d="m511.74 725.76c3.6562 3.6562 8.457 5.4922 13.258 5.4922s9.6016-1.8359 13.258-5.4922c7.332-7.332 7.332-19.18 0-26.512l-80.496-80.496h179.74c10.367 0 18.75-8.3984 18.75-18.75s-8.3828-18.75-18.75-18.75h-179.74l80.492-80.492c7.332-7.332 7.332-19.18 0-26.512-7.332-7.332-19.18-7.332-26.512 0l-112.5 112.5c-7.332 7.332-7.332 19.18 0 26.512z"/>
 </g>
</svg>
