<?xml version="1.0" encoding="UTF-8"?>
<svg width="1200pt" height="1200pt" version="1.1" viewBox="0 0 1200 1200" xmlns="http://www.w3.org/2000/svg">
 <path d="m1063.3 1036.7-311.34-311.34c56.887-63.148 91.836-146.42 91.836-237.9 0-196.45-159.8-356.25-356.25-356.25s-356.25 159.8-356.25 356.25 159.8 356.25 356.25 356.25c91.48 0 174.75-34.949 237.9-91.836l311.34 311.34c3.6562 3.6562 8.457 5.4922 13.258 5.4922s9.6016-1.8359 13.258-5.4922c7.3281-7.332 7.3281-19.184 0-26.516zm-894.51-549.24c0-175.76 142.99-318.75 318.75-318.75s318.75 142.99 318.75 318.75-142.99 318.75-318.75 318.75-318.75-142.99-318.75-318.75z"/>
</svg>
