<?xml version="1.0" encoding="UTF-8"?>
<svg width="1200pt" height="1200pt" version="1.1" viewBox="0 0 1200 1200" xmlns="http://www.w3.org/2000/svg">
 <g>
  <path d="m1050 150h-900c-10.352 0-18.75 8.3984-18.75 18.75v187.5c0 10.352 8.3984 18.75 18.75 18.75h900c10.367 0 18.75-8.3984 18.75-18.75v-187.5c0-10.352-8.3828-18.75-18.75-18.75zm-18.75 187.5h-862.5v-150h862.5z"/>
  <path d="m1050 487.5h-900c-10.352 0-18.75 8.3984-18.75 18.75v187.5c0 10.367 8.3984 18.75 18.75 18.75h900c10.367 0 18.75-8.3828 18.75-18.75v-187.5c0-10.352-8.3828-18.75-18.75-18.75zm-18.75 187.5h-862.5v-150h862.5z"/>
  <path d="m1050 825h-900c-10.352 0-18.75 8.3828-18.75 18.75v187.5c0 10.367 8.3984 18.75 18.75 18.75h900c10.367 0 18.75-8.3828 18.75-18.75v-187.5c0-10.367-8.3828-18.75-18.75-18.75zm-18.75 187.5h-862.5v-150h862.5z"/>
 </g>
</svg>
