<?xml version="1.0" encoding="UTF-8"?>
<svg width="1200pt" height="1200pt" version="1.1" viewBox="0 0 1200 1200" xmlns="http://www.w3.org/2000/svg">
 <g>
  <path d="m600 131.25c-258.47 0-468.75 210.28-468.75 468.75s210.28 468.75 468.75 468.75 468.75-210.28 468.75-468.75-210.28-468.75-468.75-468.75zm0 900c-237.79 0-431.25-193.45-431.25-431.25 0-237.79 193.46-431.25 431.25-431.25 237.8 0 431.25 193.46 431.25 431.25 0 237.8-193.45 431.25-431.25 431.25z"/>
  <path d="m787.5 581.25h-168.75v-168.75c0-10.352-8.3984-18.75-18.75-18.75s-18.75 8.3984-18.75 18.75v168.75h-168.75c-10.352 0-18.75 8.3984-18.75 18.75s8.3984 18.75 18.75 18.75h168.75v168.75c0 10.367 8.3984 18.75 18.75 18.75s18.75-8.3828 18.75-18.75v-168.75h168.75c10.367 0 18.75-8.3984 18.75-18.75s-8.3828-18.75-18.75-18.75z"/>
 </g>
</svg>
