<?xml version="1.0" encoding="UTF-8"?>
<svg width="1200pt" height="1200pt" version="1.1" viewBox="0 0 1200 1200" xmlns="http://www.w3.org/2000/svg">
 <path d="m931.46 268.54c-88.535-88.539-206.25-137.29-331.46-137.29s-242.93 48.75-331.46 137.29c-182.77 182.76-182.77 480.13 0 662.91 88.535 88.535 206.25 137.3 331.46 137.3s242.93-48.77 331.46-137.29c182.76-182.77 182.76-480.17 0-662.92zm-636.41 26.512c81.469-81.449 189.75-126.3 304.95-126.3 108.9 0 211.33 40.5 291.04 113.7l-608.57 608.57c-154.95-169-151.07-432.3 12.582-595.97zm609.9 609.9c-81.469 81.434-189.75 126.3-304.95 126.3-108.9 0-211.33-40.52-291.04-113.68l608.57-608.57c154.93 168.98 151.07 432.26-12.582 595.95z"/>
</svg>
