<?xml version="1.0" encoding="UTF-8"?>
<svg width="1200pt" height="1200pt" version="1.1" viewBox="0 0 1200 1200" xmlns="http://www.w3.org/2000/svg">
 <g>
  <path d="m1019.7 132.68c-7.0117-2.8867-15.055-1.3125-20.438 4.0703l-108.17 108.17c-79.855-73.445-182.51-113.66-291.07-113.66-224.64 0-409.26 168.54-429.39 392.06-0.46875 5.25 1.2734 10.445 4.8359 14.344 3.5469 3.8828 8.5703 6.0938 13.84 6.0938h151.2c9.3359 0 17.23-6.8633 18.562-16.086 17.082-119.1 120.68-208.91 240.96-208.91 58.688 0 114.24 20.758 158.38 58.855l-134.14 134.14c-5.3633 5.3633-6.9766 13.426-4.0703 20.438 2.8867 6.9961 9.75 11.57 17.324 11.57h375c10.367 0 18.75-8.3984 18.75-18.75v-375c0-7.5742-4.5547-14.418-11.57-17.324zm-25.93 373.57h-310.99l115.88-115.88c7.332-7.3125 7.332-19.164 0.019531-26.492-53.137-53.289-123.7-82.633-198.66-82.633-133.35 0-248.91 95.645-275.29 225h-114.41c27.453-193.8 191.5-337.5 389.7-337.5 104.79 0 203.53 41.062 278.1 115.65 3.5234 3.5234 8.2695 5.4922 13.258 5.4922s9.75-1.9688 13.258-5.4922l89.133-89.137z"/>
  <path d="m1010.7 656.25h-151.2c-9.3203 0-17.23 6.8438-18.562 16.086-17.102 119.1-120.68 208.91-240.96 208.91-58.688 0-114.24-20.758-158.38-58.855l134.14-134.14c5.3633-5.3633 6.9766-13.426 4.0703-20.438-2.9062-7.0156-9.75-11.57-17.324-11.57h-375c-10.352 0-18.75 8.3828-18.75 18.75v375c0 7.5742 4.5742 14.438 11.57 17.324 2.3242 0.97656 4.7617 1.4258 7.1797 1.4258 4.875 0 9.6758-1.9141 13.258-5.4922l108.17-108.17c79.855 73.441 182.49 113.66 291.07 113.66 224.64 0 409.26-168.54 429.39-392.06 0.46875-5.2305-1.2734-10.461-4.8359-14.344-3.5664-3.8828-8.5508-6.0938-13.84-6.0938zm-410.72 375c-104.79 0-203.55-41.062-278.1-115.65-3.5234-3.5234-8.2891-5.4922-13.273-5.4922-4.9883 0-9.75 1.9688-13.258 5.4922l-89.117 89.137v-310.99h310.99l-115.88 115.88c-7.3125 7.3125-7.332 19.164-0.019531 26.492 53.117 53.289 123.68 82.633 198.66 82.633 133.33 0 248.91-95.645 275.29-225h114.41c-27.453 193.8-191.52 337.5-389.7 337.5z"/>
 </g>
</svg>
