<?xml version="1.0" encoding="UTF-8"?>
<svg width="1200pt" height="1200pt" version="1.1" viewBox="0 0 1200 1200" xmlns="http://www.w3.org/2000/svg">
 <path d="m825 412.5h-393.75v-93.75c0-7.332-4.2734-13.969-10.914-17.043-6.6562-3.0547-14.477-1.9492-20.043 2.793l-262.5 225c-4.1602 3.582-6.543 8.7734-6.543 14.25s2.3828 10.668 6.543 14.23l262.5 225c5.5703 4.7812 13.387 5.8672 20.043 2.793 6.6406-3.0547 10.914-9.6914 10.914-17.023v-93.75h337.57c0.019531 3.7305 0.054687 7.4453 0.074219 11.137 0.54297 68.398 1.0117 127.5-26.699 155.4-13.988 14.121-35.98 20.965-67.199 20.965-10.367 0-18.75 8.3828-18.75 18.75s8.3828 18.75 18.75 18.75h150c134.4 0 243.75-109.35 243.75-243.75s-109.35-243.75-243.75-243.75zm0 450h-51.168c33.656-39.562 33.168-103.35 32.57-176.66-0.078125-9.6719-0.15234-19.555-0.15234-29.586 0-10.367-8.3828-18.75-18.75-18.75h-375c-10.352 0-18.75 8.3828-18.75 18.75v71.738l-214.93-184.24 214.93-184.24v71.738c0 10.352 8.3984 18.75 18.75 18.75h412.5c113.72 0 206.25 92.531 206.25 206.25s-92.531 206.25-206.25 206.25z"/>
</svg>
