<?xml version="1.0" encoding="UTF-8"?>
<svg width="1200pt" height="1200pt" version="1.1" viewBox="0 0 1200 1200" xmlns="http://www.w3.org/2000/svg">
 <g>
  <path d="m1050 131.27h-900c-10.352 0-18.75 8.3984-18.75 18.75v900c0 10.367 8.3984 18.75 18.75 18.75h900c10.367 0 18.75-8.3828 18.75-18.75v-900c0-10.352-8.3828-18.75-18.75-18.75zm-18.75 900h-862.5v-862.5h862.5z"/>
  <path d="m479.16 841.8c2.6641 1.3125 5.5312 1.9688 8.3828 1.9688 3.9766 0 7.9297-1.2578 11.25-3.75l299.98-225c4.7266-3.5234 7.5-9.0938 7.5-15s-2.7734-11.457-7.5-15l-299.98-225c-5.6992-4.2734-13.273-4.9492-19.633-1.7812-6.3555 3.168-10.367 9.6758-10.367 16.781v450c0 7.1055 4.0117 13.594 10.367 16.781zm27.133-429.28 249.99 187.5-249.99 187.5z"/>
 </g>
</svg>
