<?xml version="1.0" encoding="UTF-8"?>
<svg width="1200pt" height="1200pt" version="1.1" viewBox="0 0 1200 1200" xmlns="http://www.w3.org/2000/svg">
 <g>
  <path d="m1050 506.25h-67.52c-9.5078-38.852-24.863-75.844-45.844-110.3l47.852-47.852c7.332-7.332 7.332-19.18 0-26.512l-106.05-106.05c-7.332-7.332-19.18-7.332-26.512 0l-47.852 47.852c-34.461-20.98-71.477-36.355-110.32-45.844v-67.539c0-10.352-8.3828-18.75-18.75-18.75h-150c-10.352 0-18.75 8.3984-18.75 18.75v67.52c-38.852 9.4883-75.824 24.863-110.3 45.844l-47.852-47.852c-7.332-7.332-19.18-7.332-26.512 0l-106.07 106.05c-3.5234 3.5234-5.4922 8.2891-5.4922 13.258s1.9688 9.75 5.4922 13.258l47.852 47.852c-20.98 34.48-36.355 71.477-45.844 110.32l-67.52-0.003906c-10.352 0-18.75 8.3984-18.75 18.75v150c0 10.367 8.3984 18.75 18.75 18.75h67.52c9.4883 38.852 24.863 75.863 45.844 110.32l-47.852 47.852c-3.5234 3.5234-5.4922 8.2695-5.4922 13.258 0 4.9883 1.9688 9.75 5.4922 13.258l106.07 106.05c7.332 7.332 19.18 7.332 26.512 0l47.852-47.852c34.48 20.98 71.477 36.336 110.3 45.844v67.516c0 10.367 8.3984 18.75 18.75 18.75h150c10.367 0 18.75-8.3828 18.75-18.75v-67.52c38.852-9.5078 75.863-24.863 110.32-45.844l47.852 47.852c7.332 7.332 19.18 7.332 26.512 0l106.05-106.05c7.332-7.332 7.332-19.18 0-26.512l-47.852-47.852c20.98-34.48 36.336-71.477 45.844-110.32h67.52c10.367 0 18.75-8.3828 18.75-18.75v-150c0-10.352-8.3828-18.75-18.75-18.75zm-18.75 150h-63.77c-8.9258 0-16.613 6.2812-18.375 15.02-9.0391 44.586-26.531 86.664-51.957 125.1-4.9297 7.4258-3.918 17.305 2.3828 23.605l45.207 45.207-79.539 79.539-45.207-45.207c-6.3203-6.3359-16.199-7.2734-23.605-2.3828-38.398 25.426-80.492 42.918-125.1 51.957-8.7539 1.7773-15.035 9.4648-15.035 18.391v63.77h-112.5v-63.77c0-8.9258-6.2812-16.613-15.02-18.375-44.586-9.0391-86.68-26.531-125.08-51.957-7.4453-4.9141-17.305-3.918-23.605 2.3828l-45.207 45.207-79.555-79.539 45.207-45.207c6.3008-6.3008 7.293-16.164 2.3828-23.605-25.426-38.398-42.918-80.492-51.977-125.1-1.7617-8.7539-9.4492-15.035-18.375-15.035h-63.77v-112.5h63.77c8.9258 0 16.594-6.2812 18.375-15.02 9.0547-44.586 26.551-86.68 51.977-125.08 4.9141-7.4258 3.918-17.305-2.3828-23.605l-45.207-45.207 79.555-79.539 45.207 45.207c6.3008 6.3008 16.164 7.293 23.605 2.3828 38.398-25.426 80.492-42.918 125.08-51.977 8.7383-1.7773 15.02-9.4648 15.02-18.391v-63.77h112.5v63.77c0 8.9258 6.2812 16.594 15.02 18.375 44.605 9.0547 86.699 26.551 125.1 51.977 7.4062 4.8945 17.289 3.918 23.605-2.3828l45.207-45.207 79.539 79.539-45.207 45.227c-6.3008 6.3008-7.3125 16.18-2.3828 23.605 25.426 38.398 42.918 80.477 51.957 125.08 1.7773 8.7344 9.4648 15.016 18.391 15.016h63.77z"/>
  <path d="m600 393.75c-113.72 0-206.25 92.531-206.25 206.25s92.531 206.25 206.25 206.25 206.25-92.531 206.25-206.25-92.531-206.25-206.25-206.25zm0 375c-93.039 0-168.75-75.695-168.75-168.75 0-93.039 75.711-168.75 168.75-168.75 93.055 0 168.75 75.711 168.75 168.75 0 93.055-75.695 168.75-168.75 168.75z"/>
 </g>
</svg>
