<?xml version="1.0" encoding="UTF-8"?>
<svg width="1200pt" height="1200pt" version="1.1" viewBox="0 0 1200 1200" xmlns="http://www.w3.org/2000/svg">
 <path d="m988.33 361.74c-3.5234-3.5234-8.25-5.5312-13.238-5.5508-112.76-0.54297-243.84-90.73-243.84-206.19 0-10.352-8.3828-18.75-18.75-18.75h-225c-10.352 0-18.75 8.3984-18.75 18.75 0 115.46-131.08 205.65-243.84 206.2-4.9688 0.019532-9.7305 2.0234-13.238 5.5508-3.5078 3.5234-5.457 8.3047-5.4375 13.273l1.1055 225.05c0 0.65625 0.039062 1.3125 0.11328 1.9688 19.312 174.51 366.15 450.96 380.91 462.64 3.4141 2.7188 7.5391 4.0703 11.645 4.0703s8.2305-1.3516 11.645-4.0508c14.758-11.68 361.59-288.13 380.91-462.64 0.074219-0.65625 0.11328-1.3125 0.11328-1.9688l1.0859-225.05c0.019531-4.9688-1.9297-9.75-5.418-13.297zm-33.188 237.13c-16.855 142.45-294.45 377.21-355.14 426.99-60.711-49.781-338.29-284.55-355.16-426.98l-0.99219-205.99c119.27-9.5977 249.11-103.16 261.45-224.15h189.41c12.336 120.99 142.18 214.55 261.45 224.14z"/>
</svg>
