<?xml version="1.0" encoding="UTF-8"?>
<svg width="1200pt" height="1200pt" version="1.1" viewBox="0 0 1200 1200" xmlns="http://www.w3.org/2000/svg">
 <path d="m1060.1 494.91c-2.5117-7.7266-9.7109-12.957-17.832-12.957h-324.26l-100.22-308.42c-2.5117-7.7266-9.7148-12.957-17.832-12.957s-15.32 5.2305-17.832 12.957l-100.2 308.4h-324.28c-8.1172 0-15.32 5.2305-17.832 12.957-2.5117 7.7266 0.24219 16.18 6.8047 20.961l262.33 190.59-100.22 308.42c-2.5117 7.707 0.24219 16.18 6.8047 20.945 6.582 4.8008 15.469 4.8203 22.051 0l262.37-190.57 262.33 190.59c3.3008 2.3984 7.1641 3.582 11.023 3.582 3.8633 0 7.7266-1.1797 11.023-3.582 6.582-4.7617 9.3203-13.219 6.8047-20.945l-100.2-308.42 262.33-190.59c6.582-4.7812 9.3398-13.234 6.8281-20.961zm-302.21 189.23c-6.582 4.7617-9.3203 13.219-6.8047 20.945l86.57 266.49-226.67-164.68c-6.5625-4.7812-15.449-4.8008-22.051 0l-226.69 164.68 86.586-266.49c2.5117-7.707-0.24219-16.18-6.8047-20.945l-226.67-164.7h280.2c8.1172 0 15.32-5.2305 17.832-12.957l86.566-266.48 86.586 266.48c2.5117 7.7266 9.7109 12.957 17.832 12.957h280.16z"/>
</svg>
