<?xml version="1.0" encoding="UTF-8"?>
<svg width="1200pt" height="1200pt" version="1.1" viewBox="0 0 1200 1200" xmlns="http://www.w3.org/2000/svg">
 <g>
  <path d="m337.5 825c0 20.711-16.789 37.5-37.5 37.5s-37.5-16.789-37.5-37.5 16.789-37.5 37.5-37.5 37.5 16.789 37.5 37.5"/>
  <path d="m1068.8 675c0-26.812-11.305-51.02-29.383-68.102 28.688-16.047 48.133-46.742 48.133-81.898 0-51.695-42.055-93.75-93.75-93.75l-206.59-0.11328c-5.3984-15.355 16.594-76.988 28.555-110.55 12.543-35.156 24.395-68.363 27.824-92.98 3.1484-22.445-3.7695-44.758-19.48-62.832-18.227-21-45.938-33.523-74.062-33.523-63.957 0-88.988 106.2-93.355 127.48-11.625 56.625-84 176.7-104.55 210.02h-402.09c-10.352 0-18.75 8.3984-18.75 18.75v487.5c0 10.367 8.3984 18.75 18.75 18.75h300c39.711 0 92.812 21.695 139.69 40.855 37.273 15.227 72.488 29.605 101.29 33.957 14.793 2.2109 38.344 3.3008 72 3.3008 55.387-0.019531 118.57-3.1133 118.27-3.1133h56.25c51.695 0 93.75-42.055 93.75-93.75 0-26.812-11.305-51.02-29.383-68.117 28.688-16.031 48.133-46.727 48.133-81.883 0-26.812-11.305-51.02-29.383-68.117 28.688-16.031 48.133-46.727 48.133-81.883zm-900-168.75h262.5v450h-262.5zm806.25 112.5c31.012 0 56.25 25.238 56.25 56.25s-25.238 56.25-56.25 56.25h-18.75c-10.367 0-18.75 8.3828-18.75 18.75s8.3828 18.75 18.75 18.75c31.012 0 56.25 25.238 56.25 56.25s-25.238 56.25-56.25 56.25h-18.75c-10.367 0-18.75 8.3828-18.75 18.75s8.3828 18.75 18.75 18.75c31.012 0 56.25 25.238 56.25 56.25s-25.238 56.25-56.25 56.25l-57.188 0.019531c-0.61719 0.039063-62.906 3.0742-117.36 3.0742-39.02 0-57.656-1.5742-66.43-2.8867-24.355-3.6562-57.523-17.211-92.664-31.574-45.676-18.656-92.68-37.875-135.13-42.562v-451.07h93.75c6.4297 0 12.414-3.3008 15.844-8.7188 4.0859-6.4492 100.16-158.79 115.03-231.24 9.8633-47.945 33.715-97.539 56.645-97.539 17.176 0 34.727 7.9141 45.77 20.645 6 6.8984 12.73 18.227 10.648 33.02-2.9062 20.832-14.664 53.758-26.023 85.574-26.398 73.988-41.137 120.73-23.363 145.95 6.7305 9.543 17.57 14.812 30.469 14.812h206.25c31.012 0 56.25 25.238 56.25 56.25s-25.238 56.25-56.25 56.25h-18.75c-10.367 0-18.75 8.3984-18.75 18.75s8.3828 18.75 18.75 18.75z"/>
 </g>
</svg>
