<?xml version="1.0" encoding="UTF-8"?>
<svg width="1200pt" height="1200pt" version="1.1" viewBox="0 0 1200 1200" xmlns="http://www.w3.org/2000/svg">
 <g>
  <path d="m1050 131.25h-900c-10.352 0-18.75 8.3984-18.75 18.75v900c0 10.367 8.3984 18.75 18.75 18.75h900c10.367 0 18.75-8.3828 18.75-18.75v-900c0-10.352-8.3828-18.75-18.75-18.75zm-18.75 900h-862.5v-862.5h862.5z"/>
  <path d="m375 731.25h450c7.1055 0 13.594-4.0117 16.781-10.367 3.168-6.3555 2.4922-13.949-1.7812-19.633l-225-300c-7.0703-9.4492-22.93-9.4492-30 0l-225 300c-4.2734 5.6797-4.9492 13.273-1.7812 19.633 3.168 6.3555 9.6758 10.367 16.781 10.367zm225-287.49 187.5 249.99h-375z"/>
 </g>
</svg>
