<?xml version="1.0" encoding="UTF-8"?>
<svg width="1200pt" height="1200pt" version="1.1" viewBox="0 0 1200 1200" xmlns="http://www.w3.org/2000/svg">
 <g>
  <path d="m600 618.75c134.4 0 243.75-109.35 243.75-243.75s-109.35-243.75-243.75-243.75-243.75 109.35-243.75 243.75 109.35 243.75 243.75 243.75zm0-450c113.72 0 206.25 92.531 206.25 206.25s-92.531 206.25-206.25 206.25-206.25-92.531-206.25-206.25 92.531-206.25 206.25-206.25z"/>
  <path d="m892.22 608.62c-7.7812-6.2422-19.125-5.2891-25.742 2.2109-67.766 76.52-164.91 120.41-266.48 120.41s-198.71-43.895-266.49-120.41c-6.6172-7.4805-17.945-8.4766-25.742-2.2109-112.16 89.57-176.52 223.11-176.52 366.38v75c0 10.367 8.3984 18.75 18.75 18.75h900c10.367 0 18.75-8.3828 18.75-18.75v-75c0-143.25-64.352-276.79-176.53-366.38zm139.03 422.62h-862.5v-56.25c0-126 54.113-243.82 149.06-325.97 74.082 76.312 175.93 119.72 282.19 119.72s208.11-43.406 282.19-119.72c94.949 82.164 149.06 199.99 149.06 325.97z"/>
 </g>
</svg>
