<?xml version="1.0" encoding="UTF-8"?>
<svg width="1200pt" height="1200pt" version="1.1" viewBox="0 0 1200 1200" xmlns="http://www.w3.org/2000/svg">
 <g>
  <path d="m1066.1 965.34-450-750c-6.7695-11.305-25.387-11.305-32.156 0l-450 750c-3.4883 5.793-3.5625 12.992-0.24219 18.898 3.3359 5.8906 9.5781 9.5078 16.328 9.5078h900c6.75 0 12.977-3.6172 16.312-9.5078 3.3359-5.8867 3.2422-13.105-0.24219-18.898zm-882.96-9.0938 416.89-694.8 416.87 694.8z"/>
  <path d="m581.25 487.5v187.5c0 10.367 8.3984 18.75 18.75 18.75s18.75-8.3828 18.75-18.75v-187.5c0-10.352-8.3984-18.75-18.75-18.75s-18.75 8.3984-18.75 18.75z"/>
  <path d="m600 768.75c-10.352 0-18.75 8.3828-18.75 18.75v37.5c0 10.367 8.3984 18.75 18.75 18.75s18.75-8.3828 18.75-18.75v-37.5c0-10.367-8.3984-18.75-18.75-18.75z"/>
 </g>
</svg>
